<svg width="193" height="34" viewBox="0 0 193 34" fill="none" xmlns="http://www.w3.org/2000/svg">
<path d="M76.3711 17.2695C76.3711 20.0898 75.5664 22.25 73.957 23.75C72.3555 25.25 70.0391 26 67.0078 26H62.1562V8.86719H67.5352C70.332 8.86719 72.5039 9.60547 74.0508 11.082C75.5977 12.5586 76.3711 14.6211 76.3711 17.2695ZM72.5977 17.3633C72.5977 13.6836 70.9727 11.8438 67.7227 11.8438H65.7891V23H67.3477C70.8477 23 72.5977 21.1211 72.5977 17.3633ZM89.6752 21.2422C89.6752 22.7891 89.1166 24.0078 87.9994 24.8984C86.89 25.7891 85.3431 26.2344 83.3587 26.2344C81.5306 26.2344 79.9134 25.8906 78.5072 25.2031V21.8281C79.6634 22.3438 80.64 22.707 81.4369 22.918C82.2416 23.1289 82.9759 23.2344 83.64 23.2344C84.4369 23.2344 85.0462 23.082 85.4681 22.7773C85.8978 22.4727 86.1127 22.0195 86.1127 21.418C86.1127 21.082 86.0189 20.7852 85.8314 20.5273C85.6439 20.2617 85.3666 20.0078 84.9994 19.7656C84.64 19.5234 83.9017 19.1367 82.7845 18.6055C81.7377 18.1133 80.9525 17.6406 80.4291 17.1875C79.9056 16.7344 79.4877 16.207 79.1752 15.6055C78.8627 15.0039 78.7064 14.3008 78.7064 13.4961C78.7064 11.9805 79.2181 10.7891 80.2416 9.92188C81.2728 9.05469 82.6947 8.62109 84.5072 8.62109C85.3978 8.62109 86.2455 8.72656 87.0502 8.9375C87.8627 9.14844 88.7103 9.44531 89.5931 9.82812L88.4212 12.6523C87.5072 12.2773 86.7494 12.0156 86.1478 11.8672C85.5541 11.7188 84.9681 11.6445 84.39 11.6445C83.7025 11.6445 83.1752 11.8047 82.808 12.125C82.4408 12.4453 82.2572 12.8633 82.2572 13.3789C82.2572 13.6992 82.3314 13.9805 82.4798 14.2227C82.6283 14.457 82.8627 14.6875 83.183 14.9141C83.5111 15.1328 84.2806 15.5312 85.4916 16.1094C87.0931 16.875 88.1908 17.6445 88.7845 18.418C89.3783 19.1836 89.6752 20.125 89.6752 21.2422ZM112.51 17.2695C112.51 20.0898 111.705 22.25 110.096 23.75C108.494 25.25 106.178 26 103.147 26H98.295V8.86719H103.674C106.471 8.86719 108.643 9.60547 110.19 11.082C111.736 12.5586 112.51 14.6211 112.51 17.2695ZM108.736 17.3633C108.736 13.6836 107.111 11.8438 103.861 11.8438H101.928V23H103.486C106.986 23 108.736 21.1211 108.736 17.3633ZM120.845 15.1953C120.087 15.1953 119.494 15.4375 119.064 15.9219C118.634 16.3984 118.388 17.0781 118.326 17.9609H123.341C123.326 17.0781 123.095 16.3984 122.65 15.9219C122.205 15.4375 121.603 15.1953 120.845 15.1953ZM121.349 26.2344C119.24 26.2344 117.591 25.6523 116.404 24.4883C115.216 23.3242 114.623 21.6758 114.623 19.543C114.623 17.3477 115.169 15.6523 116.263 14.457C117.365 13.2539 118.884 12.6523 120.822 12.6523C122.673 12.6523 124.115 13.1797 125.146 14.2344C126.177 15.2891 126.693 16.7461 126.693 18.6055V20.3398H118.244C118.283 21.3555 118.583 22.1484 119.146 22.7188C119.708 23.2891 120.498 23.5742 121.513 23.5742C122.302 23.5742 123.048 23.4922 123.751 23.3281C124.455 23.1641 125.189 22.9023 125.955 22.543V25.3086C125.33 25.6211 124.662 25.8516 123.951 26C123.24 26.1562 122.373 26.2344 121.349 26.2344ZM132.813 26H129.239V7.76562H132.813V26ZM136.063 9.51172C136.063 8.34766 136.711 7.76562 138.008 7.76562C139.305 7.76562 139.953 8.34766 139.953 9.51172C139.953 10.0664 139.789 10.5 139.461 10.8125C139.141 11.1172 138.656 11.2695 138.008 11.2695C136.711 11.2695 136.063 10.6836 136.063 9.51172ZM139.789 26H136.215V12.8984H139.789V26ZM146.308 26L141.316 12.8984H145.054L147.585 20.3633C147.867 21.3086 148.043 22.2031 148.113 23.0469H148.183C148.222 22.2969 148.398 21.4023 148.71 20.3633L151.23 12.8984H154.968L149.976 26H146.308ZM161.921 15.1953C161.163 15.1953 160.569 15.4375 160.14 15.9219C159.71 16.3984 159.464 17.0781 159.401 17.9609H164.417C164.401 17.0781 164.171 16.3984 163.725 15.9219C163.28 15.4375 162.679 15.1953 161.921 15.1953ZM162.425 26.2344C160.315 26.2344 158.667 25.6523 157.479 24.4883C156.292 23.3242 155.698 21.6758 155.698 19.543C155.698 17.3477 156.245 15.6523 157.339 14.457C158.44 13.2539 159.96 12.6523 161.897 12.6523C163.749 12.6523 165.19 13.1797 166.222 14.2344C167.253 15.2891 167.768 16.7461 167.768 18.6055V20.3398H159.319C159.358 21.3555 159.659 22.1484 160.222 22.7188C160.784 23.2891 161.573 23.5742 162.589 23.5742C163.378 23.5742 164.124 23.4922 164.827 23.3281C165.53 23.1641 166.265 22.9023 167.03 22.543V25.3086C166.405 25.6211 165.737 25.8516 165.026 26C164.315 26.1562 163.448 26.2344 162.425 26.2344ZM177.627 12.6523C178.112 12.6523 178.514 12.6875 178.834 12.7578L178.565 16.1094C178.276 16.0312 177.924 15.9922 177.51 15.9922C176.369 15.9922 175.479 16.2852 174.838 16.8711C174.205 17.457 173.889 18.2773 173.889 19.332V26H170.315V12.8984H173.022L173.549 15.1016H173.725C174.131 14.3672 174.678 13.7773 175.365 13.332C176.061 12.8789 176.815 12.6523 177.627 12.6523ZM178.978 12.8984H182.892L185.365 20.2695C185.576 20.9102 185.72 21.668 185.798 22.543H185.869C185.955 21.7383 186.123 20.9805 186.373 20.2695L188.798 12.8984H192.63L187.088 27.6758C186.58 29.043 185.853 30.0664 184.908 30.7461C183.97 31.4258 182.873 31.7656 181.615 31.7656C180.998 31.7656 180.392 31.6992 179.798 31.5664V28.7305C180.228 28.832 180.697 28.8828 181.205 28.8828C181.838 28.8828 182.388 28.6875 182.857 28.2969C183.334 27.9141 183.705 27.332 183.97 26.5508L184.181 25.9062L178.978 12.8984Z" fill="white"/>
<path d="M41.7357 32.8302C39.0409 32.7678 36.9073 30.5444 36.9701 27.8641C37.0329 25.1839 39.2683 23.0617 41.9631 23.1242C44.658 23.1867 46.7916 25.4101 46.7288 28.0903C46.666 30.7706 44.4305 32.8927 41.7357 32.8302Z" stroke="white" stroke-width="2" stroke-miterlimit="10"/>
<path d="M10.4374 32.8307C7.74187 32.8307 5.5567 30.6574 5.5567 27.9764C5.5567 25.2954 7.74187 23.1221 10.4374 23.1221C13.1329 23.1221 15.3181 25.2954 15.3181 27.9764C15.3181 30.6574 13.1329 32.8307 10.4374 32.8307Z" stroke="white" stroke-width="2" stroke-miterlimit="10"/>
<path d="M32.8409 27.8726C32.8437 26.7218 33.0748 25.5828 33.5211 24.5209C33.9674 23.4591 34.6201 22.4954 35.4417 21.685C38.9088 18.2508 44.5329 18.2508 48 21.685" stroke="white" stroke-width="2" stroke-miterlimit="10" stroke-linecap="round" stroke-linejoin="round"/>
<path d="M1.25796 27.8724C1.25796 23.0145 5.21708 19.0776 10.1013 19.0776C14.9856 19.0776 18.9438 23.0154 18.9438 27.8732" stroke="white" stroke-width="2" stroke-miterlimit="10" stroke-linecap="round" stroke-linejoin="round"/>
<path d="M20.2078 9.02637H3.78484V14.0527H20.2078V9.02637Z" stroke="white" stroke-width="2" stroke-miterlimit="10" stroke-linecap="round" stroke-linejoin="round"/>
<path d="M42.9473 19.078L35.3668 4H30.3132" stroke="white" stroke-width="2" stroke-miterlimit="10" stroke-linecap="round" stroke-linejoin="round"/>
<path d="M32.8408 27.9766H18.9438" stroke="white" stroke-width="2" stroke-miterlimit="10" stroke-linecap="round" stroke-linejoin="round"/>
<path d="M20.2079 14.0518C20.2079 14.0518 25.2615 32.8991 35.3669 14.0518" stroke="white" stroke-width="2" stroke-miterlimit="10" stroke-linecap="round" stroke-linejoin="round"/>
<path d="M3.78467 14.0518C3.78467 14.0518 -0.0059909 20.3342 1.25786 27.8728" stroke="white" stroke-width="2" stroke-miterlimit="10" stroke-linecap="round" stroke-linejoin="round"/>
</svg>
